<svg xmlns="http://www.w3.org/2000/svg" viewBox="0 0 1152 256" width="1152" height="256"><defs></defs><g>
<g>
	<g>
		<g>
			<path d="M256,22.627416997969522 C256,11.313708498984761 244.68629150101523,0 233.37258300203047,0 L22.627416997969522,0 C11.313708498984761,0 0,11.313708498984761 0,22.627416997969522 L0,233.37258300203047 C0,244.68629150101523 11.313708498984761,256 22.627416997969522,256 L105.37258300203048,256 C116.68629150101523,256 128,244.68629150101523 128,233.37258300203047 L128,150.62741699796953 C128,139.31370849898477 139.31370849898477,128 150.62741699796953,128 L233.37258300203047,128 C244.68629150101523,128 256,116.68629150101523 256,105.37258300203048 L256,22.627416997969522 Z" fill="#ffffff"/>
		</g>
		<g>
			<path d="M256,150.62741699796953 C256,139.31370849898477 267.31370849898474,128 278.62741699796953,128 L361.37258300203047,128 C372.68629150101526,128 384,139.31370849898477 384,150.62741699796953 L384,233.37258300203047 C384,244.68629150101523 372.68629150101526,256 361.37258300203047,256 L278.62741699796953,256 C267.31370849898474,256 256,244.68629150101523 256,233.37258300203047 L256,150.62741699796953 Z" fill="#ffffff"/>
		</g>
		<g>
			<path d="M534.6274169979698,0.00000000000011368683772161603 C523.313708498985,0.00000000000011368683772161603 512.0000000000002,11.31370849898488 512.0000000000002,22.627416997969647 L512.0000000000002,233.37258300203058 C512.0000000000002,244.68629150101535 523.313708498985,256.0000000000001 534.6274169979697,256.0000000000001 L745.3725830020308,256.0000000000001 C756.6862915010155,256.0000000000001 768.0000000000002,244.68629150101538 768.0000000000002,233.3725830020306 L768.0000000000002,150.62741699796965 C768.0000000000002,139.3137084989849 756.6862915010155,128.0000000000001 745.3725830020308,128.0000000000001 L662.6274169979697,128.0000000000001 C651.313708498985,128.0000000000001 640.0000000000002,116.68629150101535 640.0000000000002,105.37258300203058 L640.0000000000002,22.627416997969647 C640.0000000000002,11.31370849898488 628.6862915010155,0.00000000000011368683772161603 617.3725830020308,0.00000000000011368683772161603 L534.6274169979698,0.00000000000011368683772161603 Z" fill="#ffffff"/>
		</g>
		<g>
			<path d="M768,22.62741699796962 C768,11.313708498984852 779.3137084989847,0.00000000000008526512829121202 790.6274169979695,0.00000000000008526512829121202 L873.3725830020305,0.00000000000008526512829121202 C884.6862915010153,0.00000000000008526512829121202 896,11.313708498984852 896,22.62741699796962 L896,105.37258300203055 C896,116.68629150101532 884.6862915010153,128.00000000000009 873.3725830020305,128.00000000000009 L790.6274169979695,128.00000000000009 C779.3137084989847,128.00000000000009 768,116.68629150101532 768,105.37258300203055 L768,22.62741699796962 Z" fill="#ffffff"/>
		</g>
		<g>
			<path d="M896.0000000000003,150.62741699796953 C896.0000000000003,139.31370849898477 907.3137084989851,128 918.6274169979699,128 L1001.3725830020308,128 C1012.6862915010156,128 1024.0000000000005,139.31370849898477 1024.0000000000005,150.62741699796953 L1024.0000000000005,233.37258300203047 C1024.0000000000005,244.68629150101523 1012.6862915010156,256 1001.3725830020308,256 L918.6274169979699,256 C907.3137084989851,256 896.0000000000003,244.68629150101523 896.0000000000003,233.37258300203047 L896.0000000000003,150.62741699796953 Z" fill="#ffffff"/>
		</g>
		<g>
			<path d="M1024.0000000000005,22.627416997969675 C1024.0000000000005,11.313708498984909 1035.3137084989853,0.00000000000014210854715202004 1046.6274169979702,0.00000000000014210854715202004 L1129.372583002031,0.00000000000014210854715202004 C1140.6862915010158,0.00000000000014210854715202004 1152.0000000000005,11.313708498984909 1152.0000000000005,22.627416997969675 L1152.0000000000005,105.37258300203061 C1152.0000000000005,116.68629150101538 1140.6862915010158,128.00000000000014 1129.372583002031,128.00000000000014 L1046.6274169979702,128.00000000000014 C1035.3137084989853,128.00000000000014 1024.0000000000005,116.68629150101538 1024.0000000000005,105.37258300203061 L1024.0000000000005,22.627416997969675 Z" fill="#ffffff"/>
		</g>
	</g>
</g></g></svg>
